<svg width="500" height="500" viewBox="0 0 500 500" fill="none" xmlns="http://www.w3.org/2000/svg">
<g clip-path="url(#clip0_118_12)">
<path d="M202.29 184.44H354.65" stroke="#003A5D" stroke-width="26" stroke-linecap="round" stroke-linejoin="round"/>
<path d="M202.29 249.97H354.65" stroke="#003A5D" stroke-width="26" stroke-linecap="round" stroke-linejoin="round"/>
<path d="M202.29 315.5H354.65" stroke="#003A5D" stroke-width="26" stroke-linecap="round" stroke-linejoin="round"/>
<path d="M158.17 203.88C168.906 203.88 177.61 195.176 177.61 184.44C177.61 173.704 168.906 165 158.17 165C147.434 165 138.73 173.704 138.73 184.44C138.73 195.176 147.434 203.88 158.17 203.88Z" fill="#003A5D"/>
<path d="M158.17 269.41C168.906 269.41 177.61 260.706 177.61 249.97C177.61 239.234 168.906 230.53 158.17 230.53C147.434 230.53 138.73 239.234 138.73 249.97C138.73 260.706 147.434 269.41 158.17 269.41Z" fill="#003A5D"/>
<path d="M158.17 334.94C168.906 334.94 177.61 326.236 177.61 315.5C177.61 304.764 168.906 296.06 158.17 296.06C147.434 296.06 138.73 304.764 138.73 315.5C138.73 326.236 147.434 334.94 158.17 334.94Z" fill="#003A5D"/>
<path d="M50 249.97C50 139.53 139.53 50 249.97 50C360.41 50 449.94 139.53 449.94 249.97C449.94 360.41 360.41 449.94 249.97 449.94C139.53 449.94 50 360.41 50 249.97Z" stroke="#003A5D" stroke-width="26" stroke-linecap="round" stroke-linejoin="round"/>
</g>
<defs>
<clipPath id="clip0_118_12">
<rect width="425.94" height="425.94" fill="white" transform="translate(37 37)"/>
</clipPath>
</defs>
</svg>
