<svg id="Menú" xmlns="http://www.w3.org/2000/svg" viewBox="0 0 500 500"><defs><style>.cls-1{fill:#003a5b;}</style></defs><circle class="cls-1" cx="315.12" cy="43.86" r="43.86"/><path class="cls-1" d="M173.51,157A10.22,10.22,0,0,0,187,151.85c13.05-29.06,28.09-61.3,32.63-69.28l41.56-20.79a10.23,10.23,0,1,0-9.15-18.3L208.21,65.41c-3.86,1.93-5,2.51-23.35,41.94-8.33,17.94-16.42,35.94-16.5,36.12A10.24,10.24,0,0,0,173.51,157Z"/><path class="cls-1" d="M387.55,130.13l-14.4-46.88-19.56,6,13.64,44.43c-2.65,8.79-15.6,41.92-27.63,71.42a10.23,10.23,0,1,0,18.95,7.73c.08-.19,7.52-18.46,14.75-36.88C389.2,135.5,388.81,134.26,387.55,130.13Z"/><path class="cls-1" d="M314.75,177.69c-2.08-2.51-3.45-4.17-33.41-14.16-14.71-4.9-30.06-9.67-35-11.09-8.76-2.5-24.51,2.34-62.38,19.2-2.73,1.21-5.82,2.59-6.61,2.89a10.23,10.23,0,0,0,6.55,19.39c1.31-.44,3.39-1.36,8.38-3.58,33.34-14.84,45-18.09,48.82-18.09h.08c4,1.17,10.67,3.22,18.1,5.59l-15.76,39.65a10.2,10.2,0,0,0,.21,8,10.21,10.21,0,0,0-6.75,6L133.14,485.9a10.23,10.23,0,1,0,19,7.73l103.8-254.38a10.19,10.19,0,0,0-.19-8.13,10.2,10.2,0,0,0,6.8-6.07l16.22-40.81c8.7,2.94,16.4,5.67,20.23,7.31,2.91,7.73,10.29,31.39,16.6,52.59a10.23,10.23,0,0,0,9.8,7.32,10.52,10.52,0,0,0,2.92-.42,10.24,10.24,0,0,0,6.9-12.73C318.49,182.22,316.24,179.49,314.75,177.69Z"/><path class="cls-1" d="M137.16,386.76c15.42-36,38.92-90.68,40.67-94.45a13.16,13.16,0,0,0-23.6-11.65c-1.47,3-29.34,67.93-41.26,95.73a13.16,13.16,0,1,0,24.19,10.37Z"/><path class="cls-1" d="M293.23,258.7a13.15,13.15,0,0,0-17.65,5.88c-1.48,2.95-29.35,67.93-41.26,95.73a13.16,13.16,0,1,0,24.19,10.37c15.41-36,38.91-90.69,40.66-94.45A13.15,13.15,0,0,0,293.23,258.7Z"/></svg>