<svg id="Menú" xmlns="http://www.w3.org/2000/svg" viewBox="0 0 500 500"><defs><style>.cls-1{fill:#003a5d;}</style></defs><path class="cls-1" d="M486.23,138.7l-45,45a11.74,11.74,0,0,1-16.61,0L316.2,75.32a11.73,11.73,0,0,1,0-16.6l45-45a47,47,0,0,1,66.31,0l58.7,58.69A46.8,46.8,0,0,1,486.23,138.7ZM277.53,97.39,21.07,353.85.37,472.5a23.46,23.46,0,0,0,27.15,27.15l118.66-20.8L402.63,222.4a11.74,11.74,0,0,0,0-16.61L294.23,97.39a11.85,11.85,0,0,0-16.7,0ZM121.17,331.87a13.61,13.61,0,0,1,0-19.33l150.4-150.4a13.68,13.68,0,0,1,19.34,19.34L140.51,331.87a13.62,13.62,0,0,1-19.34,0ZM85.92,414H132.8v35.45l-63,11L39.43,430.12l11-63H85.92Z"/></svg>