<svg width="500" height="500" viewBox="0 0 500 500" fill="none" xmlns="http://www.w3.org/2000/svg">
<g clip-path="url(#clip0_67_29)">
<path d="M315.12 87.72C339.343 87.72 358.98 68.0832 358.98 43.86C358.98 19.6368 339.343 0 315.12 0C290.897 0 271.26 19.6368 271.26 43.86C271.26 68.0832 290.897 87.72 315.12 87.72Z" fill="#009FE0"/>
<path d="M173.51 157C175.982 158.103 178.791 158.181 181.32 157.215C183.849 156.25 185.892 154.32 187 151.85C200.05 122.79 215.09 90.5499 219.63 82.5699L261.19 61.7799C262.391 61.1791 263.463 60.3475 264.343 59.3326C265.223 58.3177 265.895 57.1394 266.32 55.8649C266.744 54.5904 266.914 53.2448 266.819 51.9047C266.724 50.5647 266.365 49.2565 265.765 48.0549C265.164 46.8533 264.332 45.7818 263.317 44.9016C262.302 44.0214 261.124 43.3497 259.85 42.9249C258.575 42.5 257.229 42.3304 255.889 42.4256C254.549 42.5209 253.241 42.8791 252.04 43.4799L208.21 65.4099C204.35 67.3399 203.21 67.9199 184.86 107.35C176.53 125.29 168.44 143.29 168.36 143.47C167.249 145.947 167.168 148.764 168.134 151.301C169.099 153.838 171.033 155.888 173.51 157Z" fill="#009FE0"/>
<path d="M387.55 130.13L373.15 83.25L353.59 89.25L367.23 133.68C364.58 142.47 351.63 175.6 339.6 205.1C338.575 207.613 338.59 210.43 339.642 212.932C340.694 215.434 342.697 217.415 345.21 218.44C347.723 219.465 350.54 219.45 353.042 218.398C355.543 217.346 357.525 215.343 358.55 212.83C358.63 212.64 366.07 194.37 373.3 175.95C389.2 135.5 388.81 134.26 387.55 130.13Z" fill="#009FE0"/>
<path d="M314.75 177.69C312.67 175.18 311.3 173.52 281.34 163.53C266.63 158.63 251.28 153.86 246.34 152.44C237.58 149.94 221.83 154.78 183.96 171.64C181.23 172.85 178.14 174.23 177.35 174.53C174.779 175.399 172.658 177.253 171.454 179.685C170.25 182.118 170.061 184.929 170.93 187.5C171.799 190.071 173.653 192.192 176.085 193.396C178.518 194.6 181.329 194.789 183.9 193.92C185.21 193.48 187.29 192.56 192.28 190.34C225.62 175.5 237.28 172.25 241.1 172.25H241.18C245.18 173.42 251.85 175.47 259.28 177.84L243.52 217.49C243.014 218.769 242.771 220.137 242.808 221.511C242.844 222.886 243.157 224.24 243.73 225.49C242.22 225.905 240.826 226.663 239.655 227.703C238.485 228.743 237.57 230.039 236.98 231.49L133.14 485.9C132.115 488.42 132.133 491.243 133.189 493.75C134.246 496.256 136.255 498.24 138.775 499.265C141.294 500.29 144.118 500.272 146.624 499.215C149.131 498.159 151.115 496.15 152.14 493.63L255.94 239.25C256.468 237.954 256.724 236.564 256.691 235.165C256.658 233.766 256.338 232.389 255.75 231.12C257.276 230.705 258.686 229.94 259.866 228.887C261.046 227.833 261.965 226.52 262.55 225.05L278.77 184.24C287.47 187.18 295.17 189.91 299 191.55C301.91 199.28 309.29 222.94 315.6 244.14C316.227 246.253 317.52 248.107 319.285 249.426C321.051 250.745 323.196 251.458 325.4 251.46C326.388 251.458 327.371 251.316 328.32 251.04C330.923 250.267 333.112 248.491 334.406 246.104C335.7 243.717 335.993 240.913 335.22 238.31C318.49 182.22 316.24 179.49 314.75 177.69Z" fill="#009FE0"/>
<path d="M137.16 386.76C152.58 350.76 176.08 296.08 177.83 292.31C179.337 289.185 179.548 285.592 178.419 282.312C177.29 279.032 174.912 276.33 171.801 274.794C168.691 273.259 165.099 273.014 161.809 274.112C158.518 275.211 155.795 277.564 154.23 280.66C152.76 283.66 124.89 348.59 112.97 376.39C112.272 377.981 111.896 379.695 111.864 381.432C111.831 383.169 112.143 384.896 112.782 386.512C113.42 388.128 114.372 389.602 115.583 390.848C116.794 392.094 118.239 393.088 119.836 393.773C121.433 394.457 123.15 394.819 124.887 394.837C126.625 394.854 128.349 394.528 129.959 393.876C131.57 393.224 133.035 392.259 134.271 391.038C135.507 389.817 136.489 388.363 137.16 386.76Z" fill="#009FE0"/>
<path d="M293.23 258.7C291.685 257.927 290.003 257.465 288.279 257.342C286.556 257.219 284.825 257.437 283.186 257.983C281.547 258.529 280.032 259.392 278.727 260.524C277.421 261.656 276.352 263.035 275.58 264.58C274.1 267.53 246.23 332.51 234.32 360.31C233.622 361.901 233.246 363.615 233.213 365.352C233.181 367.089 233.493 368.816 234.131 370.432C234.77 372.048 235.722 373.521 236.932 374.768C238.143 376.014 239.589 377.008 241.186 377.693C242.783 378.377 244.499 378.739 246.237 378.756C247.974 378.774 249.698 378.448 251.309 377.796C252.919 377.144 254.385 376.179 255.621 374.958C256.857 373.737 257.839 372.283 258.51 370.68C273.92 334.68 297.42 279.99 299.17 276.23C300.69 273.115 300.918 269.526 299.806 266.243C298.694 262.96 296.33 260.249 293.23 258.7Z" fill="#009FE0"/>
</g>
<defs>
<clipPath id="clip0_67_29">
<rect width="500" height="500" fill="white"/>
</clipPath>
</defs>
</svg>
