<?xml version="1.0" encoding="utf-8"?>
<!-- Generator: Adobe Illustrator 25.0.0, SVG Export Plug-In . SVG Version: 6.00 Build 0)  -->
<svg version="1.1" id="Menú" xmlns="http://www.w3.org/2000/svg" xmlns:xlink="http://www.w3.org/1999/xlink" x="0px" y="0px"
	 viewBox="0 0 500 500" style="enable-background:new 0 0 500 500;" xml:space="preserve">
<style type="text/css">
	.st0{fill:#FFFFFF;}
</style>
<path class="st0" d="M438.1,127.7v19.6c0,92.6,0.3,185.2-0.4,277.7c0,14-2.6,27.8-7.7,40.9c-9.1,22.5-26.3,34.3-52.1,34.1
	c-84.9-0.6-169.7-0.2-254.6-0.2c-32.6,0-54.7-18.8-59.8-51.4c-1.3-8.6-1.5-17.4-1.5-26.1c-0.1-92.6-0.1-185.2,0-277.7v-16.9
	c-10.3,0-18.9-0.1-27.5,0c-9,0.1-13.3-4.8-13.9-13.3c-0.3-3.9-0.2-7.8-0.1-11.6C20.8,85.8,23.4,83,39.9,83
	c26.2-0.1,52.4-0.5,78.5,0.2c9.8,0.3,15-2.5,18.2-12c4.6-13.2,10.6-26,16.2-38.9c9.3-21.3,25.9-32,49-32.2c32-0.2,64-0.2,96,0
	c23.8,0.1,40.5,11.2,49.9,33.1c4.1,9.8,9.2,19.4,12.1,29.6c4.5,15.8,12.8,22,30.1,20.7c24.1-1.9,48.5-0.1,72.7-0.6
	c16.9-0.4,16.9,10.4,16.8,22.3c-0.1,11.7,0.7,23.3-16.4,22.6C455.4,127.4,447.7,127.7,438.1,127.7z M107.7,128.4
	c-0.3,5-0.6,8.4-0.6,11.8c0,95.9,0,191.8,0,287.7c-0.1,4.4,0.2,8.7,1,13c2.1,9.4,6.9,14.5,18.1,14.5c82.8-0.4,165.7-0.4,248.5,0
	c10.6,0,15-5.1,17-13.9c0.9-4.8,1.3-9.6,1.1-14.4c0.1-94.9,0.1-189.8,0-284.8c0-4.6-0.4-9.2-0.7-13.8L107.7,128.4z M319.2,82.2
	c-4-9.9-7.8-17.7-10.2-25.9c-2.7-9.2-8.3-11.4-17.2-11.3c-28.1,0.5-56.1,0-84.2,0.4c-4.3,0.1-10.9,1.3-12.5,4.2
	c-5.5,9.8-9.2,20.6-14.2,32.6H319.2z"/>
<path class="st0" d="M327.5,292.1c0,34.7,0.1,69.4,0,104c-0.1,20.2-3.1,22.6-26.3,22.6c-24.9,0.1-28.4-2.4-28.5-22.4
	c-0.2-69.9-0.2-139.9,0-209.8c0-20,3.9-22.8,28.2-22.7c22.9,0.1,26.5,2.9,26.6,22.4C327.6,221.5,327.5,256.8,327.5,292.1z"/>
<path class="st0" d="M226.9,292.1c0,35.2-0.6,70.5,0.2,105.8c0.5,20.1-11.3,21.2-26.3,21c-24.9-0.4-28-2.1-28-20.8
	c-0.2-71.1,0.2-142.2-0.3-213.3c-0.1-18.3,9.4-21.3,24.6-21.1c26.3,0.4,29.6,2,29.8,20.9C227.1,220.4,226.9,256.2,226.9,292.1z"/>
</svg>
