<?xml version="1.0" encoding="utf-8"?>
<!-- Generator: Adobe Illustrator 25.0.0, SVG Export Plug-In . SVG Version: 6.00 Build 0)  -->
<svg version="1.1" id="Menú" xmlns="http://www.w3.org/2000/svg" xmlns:xlink="http://www.w3.org/1999/xlink" x="0px" y="0px"
	 viewBox="0 0 500 500" style="enable-background:new 0 0 500 500;" xml:space="preserve">
<style type="text/css">
	.st0{fill:#FFFFFF;}
</style>
<g>
	<g>
		<path class="st0" d="M341.1,296.2c0,47.3,0.1,94.6,0,141.9c-0.1,30.6-18.5,54.1-47.2,60.3c-4.6,1-9.5,1.4-14.2,1.4
			c-72.3,0.1-144.5,0.1-216.8,0c-30.4,0-54.1-18.8-60.3-47.4c-1-4.5-1.4-9.1-1.4-13.7c-0.1-95.3-0.1-190.6,0-285.9
			c0-31.1,20-54.9,50-60.3c3.5-0.6,7-0.8,10.6-0.8c73,0,145.9-0.1,218.9,0c30.9,0.1,54.5,20,59.7,49.8c0.8,4.5,0.8,9.2,0.8,13.8
			C341.1,202.3,341.1,249.3,341.1,296.2z M46.5,296.1c0,46.9,0,93.8,0,140.8c0,12.5,5.1,17.6,17.8,17.6c71.2,0,142.3,0,213.5,0
			c13.2,0,18.2-5,18.2-18.3c0-93.7,0-187.3,0-281c0-13.2-5.1-18.2-18.4-18.2c-71,0-142,0-213,0c-13,0-18.1,5-18.1,17.9
			C46.5,201.9,46.5,249,46.5,296.1z"/>
		<path class="st0" d="M500,204.9c0,47.3,0,94.6,0,141.9c0,28.3-15.4,50.6-40.8,59.1c-5,1.7-10.3,2.8-15.6,2.9
			c-19.3,0.4-38.6,0.4-57.9,0.2c-11.1-0.1-20.2-8.5-21.5-19.1c-1.4-11.6,4.9-21.9,15.9-25c2.8-0.8,5.9-0.9,8.9-0.9
			c15.9-0.1,31.9,0,47.8,0c12.5,0,17.7-5.3,17.7-17.8c0-94.1,0-188.1,0-282.2c0-12.2-5.2-17.5-17.4-17.5c-71.6,0-143.1,0-214.7-0.1
			c-8,0-13.3,2.9-16.9,10.2c-5.7,11.4-18.7,15.6-29.8,10.3c-11.3-5.4-16.3-18.4-10.8-30.1C176.3,12.8,195.5,1,221.7,0.9
			c71.9-0.2,143.8-0.1,215.7,0c4.9,0,10,0.3,14.8,1.4c28.9,6.1,47.7,30,47.7,60.7C500.1,110.3,500,157.6,500,204.9z"/>
	</g>
	<g>
		<g>
			<path class="st0" d="M187.4,365.8h-32.6v-54.4H104v-31.7h50.8v-53.8h32.6v53.8h50.8v31.7h-50.8V365.8z"/>
		</g>
	</g>
</g>
</svg>
