<svg id="Menú" xmlns="http://www.w3.org/2000/svg" viewBox="0 0 500 500"><defs><style>.cls-1{fill:#003a5d;}</style></defs><path class="cls-1" d="M438.15,127.69V147.3c0,92.58.3,185.16-.35,277.73a113.29,113.29,0,0,1-7.72,40.86C421,488.36,403.81,500.19,378,500c-84.85-.62-169.71-.23-254.57-.24-32.6,0-54.71-18.78-59.78-51.38-1.34-8.57-1.48-17.38-1.49-26.08q-.15-138.87,0-277.74V127.62c-10.3,0-18.9-.06-27.5,0-9,.07-13.27-4.81-13.87-13.34-.27-3.86-.19-7.75-.14-11.63.18-16.8,2.8-19.6,19.29-19.68,26.18-.13,52.38-.51,78.54.2,9.78.27,15-2.53,18.24-12,4.59-13.24,10.57-26,16.17-38.88,9.29-21.34,25.85-32,49-32.2,32-.21,64-.15,96,0,23.8.1,40.52,11.2,49.92,33.11C351.94,43,357,52.58,359.9,62.76c4.49,15.81,12.81,22,30.11,20.68,24.09-1.88,48.46-.08,72.69-.61,16.86-.37,16.86,10.37,16.75,22.33-.11,11.67.66,23.33-16.43,22.59C455.37,127.42,447.7,127.69,438.15,127.69Zm-330.49.67c-.26,5-.58,8.4-.58,11.76q0,143.83,0,287.66a59.86,59.86,0,0,0,1,13c2.11,9.43,6.9,14.51,18.09,14.45q124.26-.64,248.52,0c10.63.05,15-5.06,17-13.87a67.42,67.42,0,0,0,1.1-14.43q.1-142.37,0-284.75c0-4.6-.44-9.2-.68-13.83ZM319.22,82.23c-4-9.9-7.82-17.68-10.25-25.87-2.72-9.15-8.26-11.44-17.24-11.28-28.06.49-56.14,0-84.2.38-4.33.06-10.92,1.32-12.53,4.21-5.47,9.82-9.18,20.61-14.2,32.56Z"/><path class="cls-1" d="M327.49,292.06c0,34.67.12,69.35-.05,104-.1,20.17-3.09,22.56-26.31,22.64-24.9.09-28.41-2.36-28.46-22.38q-.27-104.91,0-209.81c0-20,3.85-22.8,28.18-22.71,22.92.09,26.51,2.92,26.6,22.45C327.61,221.53,327.49,256.79,327.49,292.06Z"/><path class="cls-1" d="M226.88,292.06c0,35.25-.62,70.52.23,105.75.48,20.06-11.27,21.23-26.29,21-24.85-.44-28-2.06-28-20.78-.19-71.09.24-142.18-.3-213.26-.14-18.27,9.43-21.34,24.57-21.08,26.32.45,29.6,2,29.75,20.9C227.09,220.39,226.89,256.23,226.88,292.06Z"/></svg>