<?xml version="1.0" encoding="utf-8"?>
<!-- Generator: Adobe Illustrator 25.0.0, SVG Export Plug-In . SVG Version: 6.00 Build 0)  -->
<svg version="1.1" id="Menú" xmlns="http://www.w3.org/2000/svg" xmlns:xlink="http://www.w3.org/1999/xlink" x="0px" y="0px"
	 viewBox="0 0 500 500" style="enable-background:new 0 0 500 500;" xml:space="preserve">
<style type="text/css">
	.st0{fill:#FFFFFF;}
</style>
<circle class="st0" cx="346" cy="38.3" r="38.3"/>
<path class="st0" d="M381.6,161c-5.3-5.3-23.7,7.9-36.9,21.1s-29,7.9-31.7,2.6s18.5-58,18.5-76.5s-23.7-21.1-36.9-21.1
	s-71.2,52.8-71.2,52.8c-33,30.3,19.8,59.4,19.8,59.4s-2.6,50.1,0,66c2.7,16,32.5,29.6,44.8,36.6c17.5,10,40.9,17.6,49.2,37.9
	c1.6,4.1,2.1,8.8,0.3,12.8s-5.7,6.7-9.6,8.8c-19.8,10.2-39.3,21.4-58.9,32.1c-4.3,2.3-8.6,4.7-12,8.3s-5.6,8.4-4.8,13.2
	c0.9,5.2,5,9.1,9.1,12.5c1.2,1.2,2.7,2,4.3,2.3c1.8,0.2,3.4-0.8,5-1.7c23.7-14.3,49-27.3,71.3-43.7c9.1-6.8,17.4-14.7,24.6-23.5
	c5.8-7,10.6-15.3,11.6-24.4c2.9-24.9-26.8-37-42.8-50c-12.4-10.1-26.6-19.2-37.9-30.6c-7.6-7.6-0.6-56.9-0.5-59.9
	c0.5,0.2,4,0,8.5,4.5c5.3,5.3,18.5,13.2,29,13.2s31.7-18.5,47.5-29.6S386.9,166.2,381.6,161z M260.3,168.9c0,0-5.3-2.6-7.9-5.3
	s-5.3-15.8-2.8-21.1s21.3,0,21.3,0C262.9,147.8,260.3,168.9,260.3,168.9L260.3,168.9z"/>
<path class="st0" d="M266.9,307.4c-7.9-2.6-29-21.1-29-21.1s-23.7,92.4-29.7,106.9s-91.7,75.2-96.9,85.8s7.9,21.1,18.4,21.1
	s96.3-72.6,96.3-72.6C236.5,422.2,274.8,310,266.9,307.4z"/>
</svg>
