<svg id="Menú" xmlns="http://www.w3.org/2000/svg" viewBox="0 0 500 500"><defs><style>.cls-1{fill:#003a5d;}</style></defs><circle class="cls-1" cx="346.02" cy="38.26" r="38.26"/><path class="cls-1" d="M381.64,161c-5.27-5.28-23.74,7.92-36.93,21.11s-29,7.91-31.67,2.64,18.47-58,18.47-76.52-23.74-21.11-36.94-21.11-71.24,52.77-71.24,52.77c-33,30.34,19.79,59.37,19.79,59.37s-2.64,50.13,0,66c2.67,16,32.52,29.63,44.76,36.62,17.48,10,40.94,17.6,49.17,37.93,1.65,4.08,2.13,8.83.3,12.83s-5.7,6.73-9.62,8.76c-19.81,10.25-39.28,21.37-58.86,32.11-4.27,2.34-8.62,4.74-12,8.27s-5.63,8.44-4.81,13.25c.88,5.2,5,9.14,9.07,12.55a8.32,8.32,0,0,0,4.31,2.34c1.77.17,3.44-.78,5-1.7,23.69-14.26,49-27.33,71.34-43.69a138.75,138.75,0,0,0,24.56-23.51c5.81-7.05,10.57-15.33,11.6-24.41,2.85-24.92-26.83-37-42.8-50-12.41-10.12-26.58-19.23-37.92-30.56-7.62-7.63-.56-56.85-.55-59.94.54.21,4,0,8.47,4.53,5.27,5.27,18.47,13.19,29,13.19s31.66-18.47,47.49-29.63S386.92,166.23,381.64,161Zm-121.37,7.92s-5.27-2.64-7.91-5.28-5.28-15.83-2.81-21.11,21.28,0,21.28,0C262.91,147.76,260.27,168.87,260.27,168.87Z"/><path class="cls-1" d="M266.87,307.39c-7.92-2.64-29-21.11-29-21.11s-23.74,92.35-29.7,106.86-91.67,75.2-96.94,85.75S119.11,500,129.67,500,226,427.44,226,427.44C236.53,422.16,274.78,310,266.87,307.39Z"/></svg>