<svg width="500" height="500" viewBox="0 0 500 500" fill="none" xmlns="http://www.w3.org/2000/svg">
<path d="M346.02 76.52C367.15 76.52 384.28 59.3904 384.28 38.26C384.28 17.1296 367.15 0 346.02 0C324.889 0 307.76 17.1296 307.76 38.26C307.76 59.3904 324.889 76.52 346.02 76.52Z" fill="#009EE0"/>
<path d="M381.64 161C376.37 155.72 357.9 168.92 344.71 182.11C331.52 195.3 315.71 190.02 313.04 184.75C310.37 179.48 331.51 126.75 331.51 108.23C331.51 89.7101 307.77 87.1201 294.57 87.1201C281.37 87.1201 223.33 139.89 223.33 139.89C190.33 170.23 243.12 199.26 243.12 199.26C243.12 199.26 240.48 249.39 243.12 265.26C245.79 281.26 275.64 294.89 287.88 301.88C305.36 311.88 328.82 319.48 337.05 339.81C338.7 343.89 339.18 348.64 337.35 352.64C335.52 356.64 331.65 359.37 327.73 361.4C307.92 371.65 288.45 382.77 268.87 393.51C264.6 395.85 260.25 398.25 256.87 401.78C253.49 405.31 251.24 410.22 252.06 415.03C252.94 420.23 257.06 424.17 261.13 427.58C262.299 428.775 263.801 429.591 265.44 429.92C267.21 430.09 268.88 429.14 270.44 428.22C294.13 413.96 319.44 400.89 341.78 384.53C350.9 377.73 359.148 369.834 366.34 361.02C372.15 353.97 376.91 345.69 377.94 336.61C380.79 311.69 351.11 299.61 335.14 286.61C322.73 276.49 308.56 267.38 297.22 256.05C289.6 248.42 296.66 199.2 296.67 196.11C297.21 196.32 300.67 196.11 305.14 200.64C310.41 205.91 323.61 213.83 334.14 213.83C344.67 213.83 365.8 195.36 381.63 184.2C397.46 173.04 386.92 166.23 381.64 161ZM260.27 168.92C260.27 168.92 255 166.28 252.36 163.64C249.72 161 247.08 147.81 249.55 142.53C252.02 137.25 270.83 142.53 270.83 142.53C262.91 147.76 260.27 168.87 260.27 168.87V168.92Z" fill="#009EE0"/>
<path d="M266.87 307.39C258.95 304.75 237.87 286.28 237.87 286.28C237.87 286.28 214.13 378.63 208.17 393.14C202.21 407.65 116.5 468.34 111.23 478.89C105.96 489.44 119.11 500 129.67 500C140.23 500 226 427.44 226 427.44C236.53 422.16 274.78 310 266.87 307.39Z" fill="#009EE0"/>
</svg>
