<svg id="Menú" xmlns="http://www.w3.org/2000/svg" viewBox="0 0 500 500"><defs><style>.cls-1{fill:#003a5d;}</style></defs><path class="cls-1" d="M167.51,378.51H96.08a32.18,32.18,0,0,1-32.14-32.14V153.63a32.18,32.18,0,0,1,32.14-32.14h71.43Z"/><path class="cls-1" d="M90.79,340.15H32.14A32.18,32.18,0,0,1,0,308V192a32.18,32.18,0,0,1,32.14-32.15H90.79Z"/><path class="cls-1" d="M403.92,378.51H332.49v-257h71.43a32.18,32.18,0,0,1,32.14,32.14V346.37A32.18,32.18,0,0,1,403.92,378.51Z"/><path class="cls-1" d="M467.86,340.15H409.21V159.85h58.65A32.18,32.18,0,0,1,500,192V308A32.18,32.18,0,0,1,467.86,340.15Z"/><rect class="cls-1" x="154.09" y="207.45" width="191.83" height="76.22"/></svg>