<?xml version="1.0" encoding="utf-8"?>
<!-- Generator: Adobe Illustrator 25.0.0, SVG Export Plug-In . SVG Version: 6.00 Build 0)  -->
<svg version="1.1" id="Menú" xmlns="http://www.w3.org/2000/svg" xmlns:xlink="http://www.w3.org/1999/xlink" x="0px" y="0px"
	 viewBox="0 0 500 500" style="enable-background:new 0 0 500 500;" xml:space="preserve">
<style type="text/css">
	.st0{fill:#FFFFFF;}
</style>
<path class="st0" d="M486.2,138.7l-45,45c-4.6,4.6-12,4.6-16.6,0c0,0,0,0,0,0L316.2,75.3c-4.6-4.6-4.6-12,0-16.6c0,0,0,0,0,0l45-45
	c18.3-18.2,48-18.2,66.3,0l58.7,58.7c18.3,18.2,18.4,47.9,0.1,66.2C486.3,138.6,486.3,138.7,486.2,138.7z M277.5,97.4L21.1,353.9
	L0.4,472.5c-2.2,12.8,6.3,24.9,19.1,27.1c2.7,0.5,5.4,0.5,8.1,0l118.7-20.8l256.5-256.5c4.6-4.6,4.6-12,0-16.6c0,0,0,0,0,0
	L294.2,97.4C289.6,92.8,282.2,92.8,277.5,97.4z M121.2,331.9c-5.3-5.3-5.4-13.9-0.1-19.2c0,0,0.1-0.1,0.1-0.1l150.4-150.4
	c5.5-5.2,14.1-5,19.3,0.5c5,5.3,5,13.6,0,18.8L140.5,331.9C135.2,337.2,126.6,337.2,121.2,331.9
	C121.2,331.9,121.2,331.9,121.2,331.9z M85.9,414h46.9v35.5l-63,11l-30.4-30.3l11-63h35.5V414z"/>
</svg>
