<svg width="500" height="500" viewBox="0 0 500 500" fill="none" xmlns="http://www.w3.org/2000/svg">
<path d="M151.341 218.244C147.796 238.955 144.095 259.622 140.773 280.377C139.48 288.42 136.559 294.609 127.797 296.106C118.589 297.67 113.305 292.71 109.537 285.002C103.25 272.111 96.7621 259.287 90.4302 246.574C89.0479 246.909 88 246.842 87.7102 247.267C73.3743 269.34 51.1458 265.676 29.9429 264.872C21.2032 264.537 16.2313 258.594 16.0083 250.417C15.7631 241.614 20.9356 236.006 30.1213 234.934C30.478 234.889 30.8793 234.8 31.2361 234.867C51.4357 239.335 64.0548 228.097 76.5848 214.491C92.3922 197.31 101.065 199.231 111.901 220.278C113.238 222.869 114.688 225.371 117.564 230.577C120.841 211.586 123.762 195.21 126.482 178.789C131.164 150.705 135.734 122.599 140.327 94.4924C141.866 85.1535 146.035 77.803 156.424 78.004C166.569 78.2051 170.939 84.9524 171.897 94.8052C177.471 151.911 183.268 209.017 188.998 266.101C189.934 275.529 190.915 284.957 193.903 294.654C196.645 281.137 199.499 267.642 202.085 254.103C205.162 237.905 208.506 234.979 224.827 234.867C227.792 234.867 230.802 234.509 233.7 234.911C260.566 238.598 283.263 233.169 300.43 209.509C308.278 198.695 320.429 201.801 327.185 213.977C329.793 218.669 332.268 223.428 336.214 230.823C342.122 195.657 347.518 163.417 352.936 131.2C355.009 118.8 357.417 106.445 359.134 94.0009C360.494 84.1257 365.198 77.7136 375.476 78.2721C385.71 78.8083 389.79 86.0248 390.704 95.5871C393.736 127.648 396.858 159.709 399.979 191.769C403.033 223.093 406.132 254.416 409.298 285.717C409.633 288.957 410.614 292.129 411.795 297.715C415.43 280.132 418.774 265.006 421.583 249.791C423.523 239.246 429.364 234.487 439.999 234.8C449.229 235.09 458.482 234.889 467.735 234.889C477.611 234.889 482.873 240.408 483.921 249.612C484.857 258.013 477.366 264.582 467.4 265.095C449.542 266.034 449.742 266.078 446.197 284.086C438.215 324.726 429.944 365.321 421.918 405.961C420.045 415.457 415.318 422.293 405.151 421.69C395.029 421.109 391.261 413.96 390.325 404.196C384.662 345.236 378.687 286.298 372.779 227.36C372.533 224.902 371.909 222.467 369.523 219.875C366.291 239.089 362.969 258.303 359.892 277.562C358.487 286.387 356.548 294.654 345.868 296.195C335.367 297.692 330.796 290.833 326.895 282.612C321.053 270.323 314.722 258.236 308.39 245.636C293.162 266.972 271.892 266.57 250.221 265.185C244.357 264.805 238.471 265.118 231.515 265.118C226.142 292.04 220.88 318.403 215.596 344.767C211.449 365.433 207.838 386.233 202.687 406.654C201.305 412.128 196.066 418.406 190.982 420.774C181.641 425.108 173.257 417.557 171.764 404.308C169.111 380.76 166.948 357.167 164.607 333.573C160.817 295.279 157.071 256.985 153.303 218.669L151.363 218.222L151.341 218.244Z" fill="#003A5D"/>
</svg>
