<?xml version="1.0" encoding="utf-8"?>
<!-- Generator: Adobe Illustrator 25.0.0, SVG Export Plug-In . SVG Version: 6.00 Build 0)  -->
<svg version="1.1" id="Capa_1" xmlns="http://www.w3.org/2000/svg" xmlns:xlink="http://www.w3.org/1999/xlink" x="0px" y="0px"
	 viewBox="0 0 500 500" style="enable-background:new 0 0 500 500;" xml:space="preserve">
<style type="text/css">
	.st0{fill:#003A5D;}
</style>
<g>
	<path class="st0" d="M395.5,139.1h-291C49.1,139.1,4,184.2,4,239.6s45.1,100.5,100.5,100.5h44v20.8l30-14.7l30-14.7l-30-14.7
		l-30-14.7v24.3h-44c-47.8,0-86.6-38.9-86.6-86.6S56.7,153,104.5,153h291c47.8,0,86.6,38.9,86.6,86.6s-38.9,86.6-86.6,86.6h-90.1
		v13.9h90.1c55.4,0,100.5-45.1,100.5-100.5S450.9,139.1,395.5,139.1z"/>
	<g>
		<path class="st0" d="M168.9,244.4c0-17.1,8.6-27.7,22.1-27.7c7.8,0,13.8,4.1,16.5,10.1h0.3v-28h14.7v72.7H208v-9.3h-0.3
			c-2.6,5.9-8.9,10.1-16.8,10.1C177.4,272.3,168.9,261.6,168.9,244.4z M184,244.5c0,9.9,4.5,16,11.9,16c7.3,0,12-6.1,12-16
			c0-9.8-4.7-16.1-12-16.1C188.5,228.4,184,234.6,184,244.5z"/>
		<path class="st0" d="M230,203.9c0-4.3,3.4-7.6,7.9-7.6c4.4,0,7.9,3.3,7.9,7.6c0,4.2-3.4,7.6-7.9,7.6
			C233.5,211.5,230,208.2,230,203.9z M230.5,217.5h14.7v54h-14.7V217.5z"/>
		<path class="st0" d="M274.8,216.3c13.6,0,22.4,6.9,22.6,17.3h-13.6c-0.3-4.3-3.8-7-9.2-7c-5.1,0-8.4,2.3-8.4,5.8
			c0,2.7,2.3,4.5,7,5.6l10.3,2.2c10.8,2.4,15.2,6.7,15.2,14.7c0,10.6-9.8,17.6-24,17.6c-14.4,0-23.3-6.9-24.1-17.5H265
			c0.7,4.5,4.3,7.1,10.1,7.1c5.6,0,9-2.2,9-5.7c0-2.7-1.8-4.2-6.7-5.4l-10-2.2c-10.2-2.3-15.5-7.6-15.5-15.6
			C252.1,223.1,261,216.3,274.8,216.3z"/>
		<path class="st0" d="M322.7,205v12.4h10v11.1h-10v25.8c0,4.1,2,6.1,6.3,6.1c1.3,0,2.7-0.1,3.6-0.3V271c-1.5,0.4-4,0.6-7,0.6
			c-12.7,0-17.6-4.2-17.6-14.7v-28.3h-7.6v-11.1h7.6V205H322.7z"/>
	</g>
</g>
</svg>
